<svg xmlns="http://www.w3.org/2000/svg" width="15.692" height="21.413" viewBox="0 0 15.692 21.413">
  <path id="clean-water" d="M14.946,3.314A1.918,1.918,0,0,0,13.5,3.4a6.78,6.78,0,0,1-5.2.419c-1.26-.391-2.439-1.211-3.832-.712a7.939,7.939,0,0,1-2.832.637L1.031.671H15.38l-.434,2.643Zm-4.863,9.128a2.47,2.47,0,0,1-1.829.633,2.47,2.47,0,0,1-1.832-.633,2.682,2.682,0,0,1-.339-3.289c.247-.458,2.011-3.09,2.163-3.314V5.822l.007.008.006-.008v.017c.148.224,1.915,2.855,2.162,3.314a2.682,2.682,0,0,1-.339,3.289ZM16.008.06A.187.187,0,0,0,15.869,0H.538A.188.188,0,0,0,.4.06.186.186,0,0,0,.361.2L2.936,15.671a.181.181,0,0,0,.177.148H6.275l.216,2.52H5.161l3.1,3.073,3.1-3.08-1.33,0,.216-2.515h3.216a.176.176,0,0,0,.176-.151L16.048.2a.177.177,0,0,0-.04-.144Z" transform="translate(-0.359 0)" fill="#fff" fill-rule="evenodd"/>
</svg>
