<svg xmlns="http://www.w3.org/2000/svg" width="21" height="21" viewBox="0 0 21 21">
  <g id="clean-energy" transform="translate(-0.358)">
    <path id="Path_16" data-name="Path 16" d="M10.924,13.637A3.118,3.118,0,0,1,10,7.541V8.7a2.041,2.041,0,1,0,1.848,0V7.54a3.119,3.119,0,0,1-.922,6.1Zm-.445-6.7a.446.446,0,0,1,.891,0V9a.447.447,0,0,1-.891,0V6.938Zm.444-2.368a5.995,5.995,0,1,0,5.994,5.994A5.994,5.994,0,0,0,10.922,4.57ZM3.908,10.464a.5.5,0,0,0-.461-.492H.822a.494.494,0,0,0,0,.986H3.447a.5.5,0,0,0,.461-.494m17.45,0a.5.5,0,0,0-.461-.492H18.272a.494.494,0,0,0,0,.986H20.9a.5.5,0,0,0,.461-.494M10.824,21a.5.5,0,0,0,.491-.461V17.914a.494.494,0,0,0-.986,0V20.54a.5.5,0,0,0,.494.46m8.881-5.279a.5.5,0,0,0-.156-.656l-2.278-1.3a.494.494,0,0,0-.49.856l2.278,1.3a.5.5,0,0,0,.645-.2M5.594,19.347a.5.5,0,0,0,.655-.156l1.3-2.278a.494.494,0,0,0-.856-.49L5.394,18.7a.5.5,0,0,0,.2.645m10.493,0a.5.5,0,0,0,.2-.645l-1.309-2.276a.494.494,0,0,0-.854.492l1.308,2.276a.5.5,0,0,0,.658.152M1.668,15.728a.5.5,0,0,0,.644.2l2.276-1.309a.494.494,0,0,0-.491-.854L1.82,15.07a.5.5,0,0,0-.153.658M10.824,3.549a.5.5,0,0,0,.491-.46V.464a.494.494,0,0,0-.986,0V3.089a.5.5,0,0,0,.494.46M4.747,7a.5.5,0,0,0-.155-.656l-2.278-1.3a.493.493,0,0,0-.489.855L4.1,7.2A.5.5,0,0,0,4.747,7M14.319,4.39a.5.5,0,0,0,.655-.156l1.3-2.278a.494.494,0,0,0-.856-.49l-1.3,2.278a.5.5,0,0,0,.2.645m-6.958,0a.5.5,0,0,0,.2-.645L6.249,1.465a.494.494,0,0,0-.854.492L6.7,4.233a.5.5,0,0,0,.658.153M16.625,7a.5.5,0,0,0,.644.2l2.275-1.31a.493.493,0,0,0-.491-.854L16.778,6.345A.5.5,0,0,0,16.625,7" fill="#fff" fill-rule="evenodd"/>
  </g>
</svg>
