<svg xmlns="http://www.w3.org/2000/svg" width="41.447" height="21" viewBox="0 0 41.447 21">
  <path id="climate-action" d="M29.3,12.3c-.232-.063-1.2-1.4-.435-2.274.128-.144-.257-.569-.152-.577a.7.7,0,0,1,.754.6A8.608,8.608,0,0,1,29.3,12.3M26.93,16.637a1.528,1.528,0,0,1-.272-.1c-.472-.239-.415.143-.647.059s.262-.622-.435-.169-.507-.071-.809-.836a1.556,1.556,0,0,1,.895-1.835,11,11,0,0,1,1.57-.411c1.038-.258,1.258-.87,1.447-.5l.1.2a1.343,1.343,0,0,1,.134.56,8.587,8.587,0,0,1-1.982,3.031m-6.1,2.5a8.68,8.68,0,0,1-2.43-.346.353.353,0,0,1-.1-.42,1.928,1.928,0,0,1,1.693-1.024c1.4-.136,3.244.9,3.538.737s.886-.933,1.756-.9a1.38,1.38,0,0,1,.789.2,8.644,8.644,0,0,1-5.241,1.76m-1.175-5.6c-.119.193-.444,1.639-.661,1.471s.088-1.676.151-1.791c.342-.623,1.08-.592.511.32m3.531-1.706a.786.786,0,0,1-.827-.073c-.217-.168.138-.447.268-.458.291-.026.728.378.559.531M27,11.849c-.093-.035-.176-.123-.246-.334s.108-.332.282-.246.407.352.407.492-.349.123-.444.087m.368.263c.29-.022.727.377.556.53a.779.779,0,0,1-.824-.073c-.218-.169.137-.447.268-.458M18.1,15.538a2.442,2.442,0,0,1-.532,1.1,1.8,1.8,0,0,1-1.178.448c-.394-.03-.448-1.073-.448-1.609,0-.185-.264.364-.4-.752-.088-.714-.55.075-.582-.4s-.263-.382-.506-.679-.541.03-.879.179-.2.227-.674.078c-.013,0-.019-.008-.031-.012a8.514,8.514,0,0,1-.636-4.2.512.512,0,0,1,.054-.081c.458-.537.447-.664.447-.664l.506-.173a8.458,8.458,0,0,1,1.415.352c.5.186,1.291.608,1.749.423.332-.136.592-.316.561-.591-.038-.344-.311-.426-.642-.195-.121.087-.381-.519-.584-.487s.252.71.079.738-.521-.709-.58-.828-.328-.416-.569-.19c-.51.481-1.338.452-1.5.576-.506.376-.64-.123-.629-.428.021-.07.041-.141.064-.209a1.042,1.042,0,0,1,.962-.106c.223.149.384-.038.471-.128s.058-.23,0-.349.112-.207.228-.237a6.008,6.008,0,0,0,.655-.388,2.164,2.164,0,0,1,1.313-.007.7.7,0,0,0,.863-.174,2.315,2.315,0,0,1,.626-.52c.126-.057-.308-.46-.665-.022s-.539.478-.708.478-1.166-.247-1.289-.561.312-.547.681-.725a9.165,9.165,0,0,1,1.634-.231c.524-.114,1.193-.376,1.53-.147s-1.408.618-.834.927c.2.112,1.126-.527,1.442-.69.743-.381-.721-.507-.531-1.282.215-.876-1.8-.537-2.8-.462A8.665,8.665,0,0,1,29.238,8.538a1.412,1.412,0,0,1-.042.4.567.567,0,0,1-1.012.077c-.088-.125-.459-.473-.446.122s.582.656.03,1.013a2.129,2.129,0,0,1-.909.362,1.158,1.158,0,0,0-.441,1.03c.062.328.85,1.224.265,1.187a3.377,3.377,0,0,1-1.341-1.162c-.18-.475-.376-.939-.516-1.3a.518.518,0,0,0-.815-.238c-.307.21.087.419-.135.867s-.378.846-.7.476c-.844-.96-2.07-.487-2.262-1.556-.1-.579-.606-.524-1.026-.852s-.657-.5-.728-.268c-.063.207,1.322,1.3,1.421,1.577.147.415-.414.781-.826.88s-.589-.23-.992-.646-.579-.715-.607-.387a1.875,1.875,0,0,0,.793,1.426c.349.22.741.319.628.676s0,.156-.395.541a1.049,1.049,0,0,0-.439,1.047c.028.538-.112.568-.2,1.014s-.279.059-.448.714M13.451,6.069c.02-.023.037-.042.045-.052a1.162,1.162,0,0,1,.682-.247c.215-.037.5.071.536.213s-.539.4-.645.5c-.3.272-.766.829-1.039.89a.331.331,0,0,1-.223-.024,8.536,8.536,0,0,1,.644-1.278m.443-.875c.112-.163.484-.629.529-.688a.668.668,0,0,1,.419-.171c.132-.025.308.049.329.147a1.143,1.143,0,0,1-.117.546,1.434,1.434,0,0,1-.916.41c-.2-.031-.281-.185-.243-.245M41.38,10.271A25.468,25.468,0,0,0,20.818,0,25.473,25.473,0,0,0,.254,10.271c-.063.088-.117.164-.161.228.044.067.1.142.161.232A25.48,25.48,0,0,0,20.818,21,25.474,25.474,0,0,0,41.38,10.73c.064-.089.117-.165.16-.232q-.077-.116-.16-.228" transform="translate(-0.093)" fill="#fff" fill-rule="evenodd"/>
</svg>
