<svg xmlns="http://www.w3.org/2000/svg" width="42.012" height="21.611" viewBox="0 0 42.012 21.611">
  <g id="consumption-production" transform="translate(-0.51 0.005)">
    <path id="Path_35" data-name="Path 35" d="M38.7,2.534A10.913,10.913,0,0,0,30.446.509L30.28.547c-1.645.388-4.258,1.029-7.317,4.822-.017.021-.035.043-.051.064l-.038.047a.249.249,0,0,0-.018.275l.072.116c.383.642.868,1.467,1.276,2.228a.152.152,0,0,1,.011.023.262.262,0,0,0,.414.07c.019-.025.039-.051.056-.078,2.714-3.751,4.849-4.269,6.293-4.608l.173-.04a7.908,7.908,0,0,1,5.657,1.453c1.605,1.265,2.419,3.281,2.419,5.987,0,4.541-2.21,6.317-4.065,7.008a7.577,7.577,0,0,1-5.65-.373l-.123-.06c-1.578-.684-3.935-2.109-6.155-6.564C18.759,1.94,15.016,1.094,12.539.535L12.406.505A10.7,10.7,0,0,0,4.284,2.524C2.675,3.806.76,6.3.76,10.891a9.825,9.825,0,0,0,2.054,6.588,10,10,0,0,0,10.045,3.47A9.633,9.633,0,0,0,16.8,19.119l1.411,1.272a.232.232,0,0,0,.323-.017.216.216,0,0,0,.056-.153V20.2l1.017-6.252v-.069a.224.224,0,0,0-.224-.223l-.044,0-.066.007-5.993,1.677-.11.018a.205.205,0,0,0-.114.066.226.226,0,0,0,.018.325l.069.064,1.342,1.212a6.247,6.247,0,0,1-2.2.93,7,7,0,0,1-7.011-2.269l-.033-.044A6.837,6.837,0,0,1,3.8,10.891c0-2.716.8-4.731,2.379-5.991A7.681,7.681,0,0,1,11.733,3.47l.135.031c2.03.458,4.81,1.086,8.641,8.773,1.99,3.99,4.482,6.6,7.617,7.977a11.108,11.108,0,0,0,4.774,1.1,9.5,9.5,0,0,0,3.326-.589c1.818-.677,6.046-2.992,6.046-9.86,0-4.589-1.945-7.086-3.577-8.374" transform="translate(0 0)" fill="#fff" fill-rule="evenodd"/>
    <path id="Path_36" data-name="Path 36" d="M38.7,2.534A10.913,10.913,0,0,0,30.446.509L30.28.547c-1.645.388-4.258,1.029-7.317,4.822-.017.021-.035.043-.051.064l-.038.047a.249.249,0,0,0-.018.275l.072.116c.383.642.868,1.467,1.276,2.228a.152.152,0,0,1,.011.023.262.262,0,0,0,.414.07c.019-.025.039-.051.056-.078,2.714-3.751,4.849-4.269,6.293-4.608l.173-.04a7.908,7.908,0,0,1,5.657,1.453c1.605,1.265,2.419,3.281,2.419,5.987,0,4.541-2.21,6.317-4.065,7.008a7.577,7.577,0,0,1-5.65-.373l-.123-.06c-1.578-.684-3.935-2.109-6.155-6.564C18.759,1.94,15.016,1.094,12.539.535L12.406.505A10.7,10.7,0,0,0,4.284,2.524C2.675,3.806.76,6.3.76,10.891a9.825,9.825,0,0,0,2.054,6.588,10,10,0,0,0,10.045,3.47A9.633,9.633,0,0,0,16.8,19.119l1.411,1.272a.232.232,0,0,0,.323-.017.216.216,0,0,0,.056-.153V20.2l1.017-6.252v-.069a.224.224,0,0,0-.224-.223l-.044,0-.066.007-5.993,1.677-.11.018a.205.205,0,0,0-.114.066.226.226,0,0,0,.018.325l.069.064,1.342,1.212a6.247,6.247,0,0,1-2.2.93,7,7,0,0,1-7.011-2.269l-.033-.044A6.837,6.837,0,0,1,3.8,10.891c0-2.716.8-4.731,2.379-5.991A7.681,7.681,0,0,1,11.733,3.47l.135.031c2.03.458,4.81,1.086,8.641,8.773,1.99,3.99,4.482,6.6,7.617,7.977a11.108,11.108,0,0,0,4.774,1.1,9.5,9.5,0,0,0,3.326-.589c1.818-.677,6.046-2.992,6.046-9.86,0-4.589-1.945-7.086-3.577-8.374" transform="translate(0 0)" fill="none" stroke="#fff" stroke-width="0.5" fill-rule="evenodd"/>
  </g>
</svg>
