<svg xmlns="http://www.w3.org/2000/svg" width="22.016" height="22.809" viewBox="0 0 22.016 22.809">
  <g id="decent-work" transform="translate(-0.784)">
    <path id="Path_27" data-name="Path 27" d="M22.275,11.185,17.62,15.519a.749.749,0,0,0-.266.651V28.318a.263.263,0,0,0,.266.259h4.809a.262.262,0,0,0,.265-.259V11.294c0-.143-.115-.4-.418-.109M8.784,17.105,4.129,21.439a.749.749,0,0,0-.266.65v6.5a.263.263,0,0,0,.266.258H8.937a.262.262,0,0,0,.265-.258V17.214c0-.143-.116-.406-.418-.109" transform="translate(-1.683 -6.041)" fill="#fff" fill-rule="evenodd"/>
    <path id="Path_28" data-name="Path 28" d="M22.8.136a.125.125,0,0,0-.039-.1A.141.141,0,0,0,22.674,0h-.025l-.038,0L19.046.791,18.982.8a.131.131,0,0,0-.07.223l.041.04.813.8L11.69,9.762,7.96,6.111a.109.109,0,0,0-.152,0L6.8,7.1s0,0,0,0L.815,12.954a.1.1,0,0,0,0,.149l1.014.992a.108.108,0,0,0,.151,0l5.9-5.78,2.707,2.65a.05.05,0,0,0,.009.013l1.012.989a.107.107,0,0,0,.152,0L20.93,3l.855.836a.135.135,0,0,0,.229-.086V3.736L22.8.174l0-.039Z" fill="#fff" fill-rule="evenodd"/>
    <path id="Path_29" data-name="Path 29" d="M24.149,25.268,21.9,27.491a.11.11,0,0,1-.145,0l-2.04-2.036c-.374-.364-.455-.068-.455.074V35.993a.262.262,0,0,0,.264.259h4.81a.262.262,0,0,0,.265-.259V25.351c0-.144-.115-.407-.446-.083" transform="translate(-10.099 -13.729)" fill="#fff" fill-rule="evenodd"/>
  </g>
</svg>
