<svg id="education" xmlns="http://www.w3.org/2000/svg" width="97.675" height="78.38" viewBox="0 0 97.675 78.38">
  <path id="Path_12" data-name="Path 12" d="M35.613,20.729,4.358,3V60.352L35.61,69.618Zm4.15.117V69.636L71.22,60.344V3Zm48.718,38.4h-.922l3.7,12.7,3.694-12.7h0V8.217H87.559V59.245Z" transform="translate(2.722 2.217)" fill="#fff" fill-rule="evenodd"/>
  <path id="Path_13" data-name="Path 13" d="M79.817,7.817l-3.351-2.6V64.264L41.74,75.288H38.208L3.638,65.8V5.217L.287,7.817V68.109L38.052,78.38H41.9L76.74,67.512l3.076-.89ZM97.961,3.633a3.7,3.7,0,0,0-7.395,0V7.549h7.395Z" transform="translate(-0.287)" fill="#fff" fill-rule="evenodd"/>
</svg>
