<svg xmlns="http://www.w3.org/2000/svg" width="27.835" height="22.336" viewBox="0 0 27.835 22.336">
  <g id="education" transform="translate(-0.287)">
    <path id="Path_12" data-name="Path 12" d="M13.265,8.052,4.358,3V19.344l8.906,2.641Zm1.183.033v13.9l8.964-2.648V3ZM28.331,19.028h-.263l1.055,3.618,1.053-3.618h0V4.487H28.068V19.028Z" transform="translate(-2.053 -1.513)" fill="#fff" fill-rule="evenodd"/>
    <path id="Path_13" data-name="Path 13" d="M22.951,2.228,22,1.487V18.313l-9.9,3.142H11.094l-9.852-2.7V1.487l-.955.741V19.409l10.762,2.927h1.1l9.929-3.1.877-.254Zm5.171-1.192a1.054,1.054,0,0,0-2.107,0V2.151h2.107Z" fill="#fff" fill-rule="evenodd"/>
  </g>
</svg>
