<svg id="education" xmlns="http://www.w3.org/2000/svg" width="49.461" height="39.69" viewBox="0 0 49.461 39.69">
  <path id="Path_12" data-name="Path 12" d="M20.185,11.977,4.358,3V32.042l15.825,4.692Zm2.1.059V36.743l15.929-4.705V3Zm24.67,19.445h-.467l1.874,6.43,1.87-6.43h0V5.642H46.489V31.481Z" transform="translate(-0.773 -0.358)" fill="#fff" fill-rule="evenodd"/>
  <path id="Path_13" data-name="Path 13" d="M40.559,3.959l-1.7-1.317v29.9L21.278,38.124H19.49l-17.506-4.8V2.642L.287,3.959v30.53l19.123,5.2h1.947L39,34.187l1.558-.451ZM49.747,1.84A1.873,1.873,0,0,0,46,1.84V3.823h3.745Z" transform="translate(-0.287)" fill="#fff" fill-rule="evenodd"/>
</svg>
