<svg xmlns="http://www.w3.org/2000/svg" width="15.901" height="21.708" viewBox="0 0 15.901 21.708">
  <g id="gender-equality" transform="translate(-0.487)">
    <path id="Path_14" data-name="Path 14" d="M7.049,14.164a4.887,4.887,0,1,1,4.83-4.887,4.864,4.864,0,0,1-4.83,4.887M16.325,0H11.314a.065.065,0,0,0-.063.065V1.749a.065.065,0,0,0,.063.065h2L11.094,4.056A6.478,6.478,0,0,0,7.048,2.638,6.643,6.643,0,0,0,6.2,15.859V17.8H4.225a.063.063,0,0,0-.064.064v1.805a.063.063,0,0,0,.064.065H6.2v1.91a.064.064,0,0,0,.063.065H8.048a.065.065,0,0,0,.065-.065v-1.91h1.976a.064.064,0,0,0,.064-.065V17.863a.064.064,0,0,0-.064-.064H8.113V15.827a6.661,6.661,0,0,0,4.3-10.369l2.183-2.209V5.134a.065.065,0,0,0,.065.064h1.665a.065.065,0,0,0,.065-.064V.065A.065.065,0,0,0,16.324,0" fill="#fff" fill-rule="evenodd"/>
    <path id="Path_15" data-name="Path 15" d="M15.5,17.38H9.645a.061.061,0,0,0-.063.058v1.435a.061.061,0,0,0,.063.059H15.5a.061.061,0,0,0,.065-.059V17.438a.061.061,0,0,0-.065-.058m0,2.486H9.645a.062.062,0,0,0-.063.06v1.435a.061.061,0,0,0,.063.058H15.5a.061.061,0,0,0,.065-.058V19.926a.062.062,0,0,0-.065-.06" transform="translate(-5.409 -10.337)" fill="#fff" fill-rule="evenodd"/>
  </g>
</svg>
