<svg xmlns="http://www.w3.org/2000/svg" width="20.8" height="21" viewBox="0 0 20.8 21">
  <path id="industry-innovation" d="M20.165,17.572,15.8,20.093V15.05l4.37-2.522ZM5.727,20.093v-4.66l4.037,2.331-4.037,2.33Zm-.664,0L.693,17.572V12.528l4.37,2.522Zm4.7-13.951L5.727,8.473V3.813l4.037,2.33Zm5.366,2.33L11.094,6.142l4.037-2.33Zm-4.037,3.479,4.369-2.521,4.371,2.521-4.371,2.523Zm-1-.575L6.06,9.048,10.1,6.717v4.66Zm4.7-2.329-4.037,2.329V6.717Zm-4.7,8.14-4.038-2.33,4.038-2.33Zm10.566-5.523L15.795,8.856V3.238a.331.331,0,0,0-.166-.287L10.595.044a.333.333,0,0,0-.332,0L5.23,2.95a.33.33,0,0,0-.166.287V8.856L.2,11.665a.331.331,0,0,0-.166.287v5.812a.331.331,0,0,0,.166.287l5.034,2.9a.333.333,0,0,0,.332,0l4.867-2.808L15.3,20.956a.333.333,0,0,0,.332,0l5.034-2.9a.33.33,0,0,0,.166-.287V11.952a.331.331,0,0,0-.166-.287Z" transform="translate(-0.029)" fill="#fff" fill-rule="evenodd"/>
</svg>
