<svg xmlns="http://www.w3.org/2000/svg" width="21.373" height="21" viewBox="0 0 21.373 21">
  <g id="life-on-land" transform="translate(-0.518)">
    <path id="Path_38" data-name="Path 38" d="M7.659,12.416a.1.1,0,0,1,.1.1V15.69a.1.1,0,0,1-.1.1H6.374a.1.1,0,0,1-.1-.1V12.511a.1.1,0,0,1,.1-.1H7.659Zm14.134,4.877H.615a.1.1,0,0,0-.1.1v1.3a.1.1,0,0,0,.1.095H21.794a.1.1,0,0,0,.1-.1v-1.3a.1.1,0,0,0-.1-.1m0,2.217H.615a.1.1,0,0,0-.1.1v1.3a.1.1,0,0,0,.1.1H21.794a.1.1,0,0,0,.1-.1v-1.3a.1.1,0,0,0-.1-.1M17.842,8.674a3.129,3.129,0,0,0-1.832-.691,2.448,2.448,0,0,0-1.7.724.181.181,0,0,0-.057.133v.115a.183.183,0,0,0,.06.145.171.171,0,0,0,.149.035.283.283,0,0,0,.145-.078,1.721,1.721,0,0,1,.849-.176,3.2,3.2,0,0,1,2.182.915l.02.017a.254.254,0,0,0,.184.077.251.251,0,0,0,.18-.074l.017-.018a3.209,3.209,0,0,1,2.185-.917,1.71,1.71,0,0,1,.85.177.3.3,0,0,0,.118.071.254.254,0,0,0,.124,0,.183.183,0,0,0,.133-.175v-.1a.182.182,0,0,0-.057-.132,2.454,2.454,0,0,0-1.721-.743,3.108,3.108,0,0,0-1.828.693M16.589.2A.179.179,0,0,0,16.5.313l-.022.071a.18.18,0,0,0,.159.231.069.069,0,0,0,.026,0,.223.223,0,0,0,.1-.026.524.524,0,0,1,.129-.014,1.838,1.838,0,0,1,1.513.989l.007.013a.217.217,0,0,0,.136.109.3.3,0,0,0,.067.01.219.219,0,0,0,.106-.026l.014-.006a2.1,2.1,0,0,1,.945-.234,1.438,1.438,0,0,1,.965.309.251.251,0,0,0,.071.079.681.681,0,0,0,.069.034l.031,0a.188.188,0,0,0,.1-.019.177.177,0,0,0,.09-.109l.018-.062a.156.156,0,0,0,.008-.051.171.171,0,0,0-.025-.092A1.592,1.592,0,0,0,19.574.658,2.231,2.231,0,0,0,18.811.8,1.85,1.85,0,0,0,17.383,0a1.762,1.762,0,0,0-.794.2M12.037,3.678l.006.1a.175.175,0,0,0,.085.143.177.177,0,0,0,.142.022.226.226,0,0,0,.123-.077,1.553,1.553,0,0,1,.808-.184,2.613,2.613,0,0,1,1.674.634l.015.015a.251.251,0,0,0,.164.062h.015a.244.244,0,0,0,.166-.08l.015-.016a2.54,2.54,0,0,1,1.856-.859,1.273,1.273,0,0,1,.552.1.287.287,0,0,0,.11.058.247.247,0,0,0,.078,0A.181.181,0,0,0,18.01,3.4l0-.083a.181.181,0,0,0-.064-.127,2.078,2.078,0,0,0-1.354-.533A2.521,2.521,0,0,0,15,3.317a2.635,2.635,0,0,0-1.413-.47,2.019,2.019,0,0,0-1.5.695.189.189,0,0,0-.049.136M1.4,5.164a2.3,2.3,0,0,1,2.3-2.3c.05,0,.1,0,.148.007A3.1,3.1,0,1,1,9.735,4.464a3.474,3.474,0,0,1-.753,6.864L4.349,11.3A2.459,2.459,0,0,1,2.56,7.157,2.3,2.3,0,0,1,1.4,5.164" fill="#fff" fill-rule="evenodd"/>
  </g>
</svg>
