<svg xmlns="http://www.w3.org/2000/svg" width="25.06" height="21" viewBox="0 0 25.06 21">
  <g id="life-below-water" transform="translate(-0.235)">
    <path id="Path_37" data-name="Path 37" d="M18.539,15.975a1.52,1.52,0,1,1,1.545-1.521,1.533,1.533,0,0,1-1.545,1.521m6.7-.709c-.583-.777-4.355-5.515-9.643-5.515-4.592,0-9.5,4.1-9.5,4.1S4.249,10.135.474,9.777c-.023,0-.046,0-.071,0H.38a.152.152,0,0,0-.145.147.419.419,0,0,0,.06.136,11.263,11.263,0,0,1,1.727,5.322A11.31,11.31,0,0,1,.292,20.708l-.033.051a.146.146,0,0,0-.023.078.148.148,0,0,0,.139.146l.041,0a.168.168,0,0,0,.04,0c3.787-.348,5.638-4.08,5.638-4.08S11.006,21,15.6,21c5.288,0,9.06-4.738,9.643-5.513l.041-.053a.147.147,0,0,0,.013-.057.143.143,0,0,0-.013-.057c-.011-.016-.024-.034-.041-.054M5.808,5.852a.186.186,0,0,1,.04-.042.161.161,0,0,1,.083-.028.15.15,0,0,1,.1.042s0,0,.006.006c2.883,2.708,5.907.513,6.536,0l.062-.057a.153.153,0,0,1,.057-.01.171.171,0,0,1,.061.01l.061.057c.629.513,3.652,2.708,6.536,0,0,0,0,0,0-.006a.147.147,0,0,1,.1-.042.153.153,0,0,1,.083.028.189.189,0,0,1,.043.042c.558.542,2.972,2.59,5.528.4a.145.145,0,0,0,.045-.1V5.109a.149.149,0,0,0-.151-.149.208.208,0,0,0-.032.006L24.9,5a4.705,4.705,0,0,1-5.43-.751l-.064-.06a.125.125,0,0,0-.065-.015.093.093,0,0,0-.046.012.128.128,0,0,0-.077.055c-.658.494-3.683,2.512-6.375.037l-.039-.039A.158.158,0,0,0,12.7,4.2a.149.149,0,0,0-.105.042l-.042.039c-2.692,2.475-5.718.458-6.376-.036A.123.123,0,0,0,6.1,4.191a.126.126,0,0,0-.111,0q-.032.031-.066.06A4.7,4.7,0,0,1,.493,5L.416,4.966A.213.213,0,0,0,.387,4.96a.15.15,0,0,0-.152.149v1.04a.142.142,0,0,0,.044.1c2.553,2.188,4.97.139,5.53-.4M.415.786A.221.221,0,0,0,.387.78.151.151,0,0,0,.235.93V1.967a.146.146,0,0,0,.044.108c2.553,2.185,4.97.137,5.529-.4a.151.151,0,0,1,.04-.042A.155.155,0,0,1,5.931,1.6a.15.15,0,0,1,.1.04s0,0,.007.007c2.884,2.711,5.907.515,6.536,0l.062-.056a.131.131,0,0,1,.057-.011.139.139,0,0,1,.06.011l.063.055c.628.516,3.652,2.711,6.535,0,0,0,0,0,.006-.006a.148.148,0,0,1,.186-.013.167.167,0,0,1,.042.042c.559.541,2.973,2.589,5.528.4a.149.149,0,0,0,.044-.108V.93A.149.149,0,0,0,25.01.78a.222.222,0,0,0-.032.006Q24.94.807,24.9.825a4.7,4.7,0,0,1-5.43-.751c-.021-.019-.042-.038-.064-.06A.16.16,0,0,0,19.343,0,.33.33,0,0,0,19.3.006a.171.171,0,0,0-.077.059C18.561.56,15.537,2.577,12.845.1L12.806.065A.17.17,0,0,0,12.7.019a.16.16,0,0,0-.105.045L12.55.1C9.858,2.577,6.832.56,6.174.065A.164.164,0,0,0,6.1.006.469.469,0,0,0,6.05,0a.17.17,0,0,0-.063.014.659.659,0,0,1-.065.06A4.7,4.7,0,0,1,.493.826L.415.787" transform="translate(0)" fill="#fff" fill-rule="evenodd"/>
  </g>
</svg>
