<svg xmlns="http://www.w3.org/2000/svg" width="110.781" height="26.569" viewBox="0 0 110.781 26.569">
  <g id="logo-indiv" transform="translate(-13.92 -7.07)">
    <g id="Group_7" data-name="Group 7" transform="translate(48.582 7.07)">
      <path id="Path_4" data-name="Path 4" d="M78.7,8.57a2.151,2.151,0,1,1-2.291,2.147A2.186,2.186,0,0,1,78.7,8.57Zm1.636,8.4H77.065V33.941h3.273Z" transform="translate(-76.41 -7.738)" fill="#fff"/>
      <path id="Path_5" data-name="Path 5" d="M96.756,40.4H93.45V23.431h3.306v2.546a5.986,5.986,0,0,1,5.308-2.907c4.216,0,6.545,2.762,6.545,7.527v9.812H105.3v-9.6c0-2.834-1.42-4.51-3.744-4.51-2.4,0-4.8,1.342-4.8,4.942V40.4Z" transform="translate(-83.998 -14.195)" fill="#fff"/>
      <path id="Path_6" data-name="Path 6" d="M142.844,30.661a6.933,6.933,0,0,1-5.963,2.979A8.486,8.486,0,0,1,128.3,24.77a8.4,8.4,0,0,1,8.542-8.836c2.507,0,4.87.982,6,2.907V7.07h3.306V33.279h-3.306V30.661Zm-5.669-11.487a5.329,5.329,0,0,0-5.491,5.563,5.564,5.564,0,1,0,11.127,0A5.473,5.473,0,0,0,137.175,19.173Z" transform="translate(-99.518 -7.07)" fill="#fff"/>
      <path id="Path_7" data-name="Path 7" d="M171.561,8.57a2.151,2.151,0,1,1-2.291,2.147A2.187,2.187,0,0,1,171.561,8.57Zm1.636,8.4h-3.273V33.941H173.2Z" transform="translate(-117.762 -7.738)" fill="#fff"/>
      <path id="Path_8" data-name="Path 8" d="M185.933,23.71,191.1,36.468l5.125-12.758h3.528l-7.089,16.973H189.5L182.45,23.71h3.483Z" transform="translate(-123.632 -14.48)" fill="#fff"/>
    </g>
    <path id="Path_9" data-name="Path 9" d="M31.182,16.18H19.672L13.92,26.148l5.752,9.968h11.51l5.758-9.968Z" transform="translate(0 -4.057)" fill="#fff"/>
  </g>
</svg>
