<svg xmlns="http://www.w3.org/2000/svg" width="113.233" height="27.157" viewBox="0 0 113.233 27.157">
  <g id="logo-indiv" transform="translate(-13.92 -7.07)" opacity="0.22">
    <g id="Group_7" data-name="Group 7" transform="translate(49.349 7.07)">
      <path id="Path_4" data-name="Path 4" d="M78.752,8.57a2.2,2.2,0,1,1-2.342,2.194A2.235,2.235,0,0,1,78.752,8.57Zm1.673,8.584H77.079V34.5h3.345Z" transform="translate(-76.41 -7.72)" fill="#fff"/>
      <path id="Path_5" data-name="Path 5" d="M96.829,40.787H93.45V23.439h3.379v2.6a6.119,6.119,0,0,1,5.426-2.971c4.309,0,6.69,2.823,6.69,7.694v10.03h-3.379V30.985c0-2.9-1.451-4.609-3.827-4.609-2.455,0-4.9,1.372-4.9,5.052v9.361Z" transform="translate(-83.789 -13.999)" fill="#fff"/>
      <path id="Path_6" data-name="Path 6" d="M143.166,31.183a7.086,7.086,0,0,1-6.095,3.045,8.674,8.674,0,0,1-8.771-9.066,8.591,8.591,0,0,1,8.731-9.032c2.563,0,4.978,1,6.129,2.971V7.07h3.379V33.859H143.16V31.183Zm-5.794-11.742a5.447,5.447,0,0,0-5.613,5.687,5.688,5.688,0,1,0,11.373,0A5.594,5.594,0,0,0,137.371,19.441Z" transform="translate(-98.88 -7.07)" fill="#fff"/>
      <path id="Path_7" data-name="Path 7" d="M171.612,8.57a2.2,2.2,0,1,1-2.342,2.194A2.235,2.235,0,0,1,171.612,8.57Zm1.673,8.584h-3.345V34.5h3.345Z" transform="translate(-116.622 -7.72)" fill="#fff"/>
      <path id="Path_8" data-name="Path 8" d="M186.01,23.71l5.278,13.04,5.239-13.04h3.606l-7.246,17.349h-3.232L182.45,23.71h3.561Z" transform="translate(-122.33 -14.276)" fill="#fff"/>
    </g>
    <path id="Path_9" data-name="Path 9" d="M31.564,16.18H19.8L13.92,26.368,19.8,36.557H31.564l5.885-10.188Z" transform="translate(0 -3.945)" fill="#fff"/>
  </g>
</svg>
