<svg xmlns="http://www.w3.org/2000/svg" width="166.781" height="40" viewBox="0 0 166.781 40">
  <g id="logo-indiv" transform="translate(-13.92 -7.07)">
    <g id="Group_7" data-name="Group 7" transform="translate(66.104 7.07)">
      <path id="Path_4" data-name="Path 4" d="M79.859,8.57a3.239,3.239,0,1,1,0,6.463A3.322,3.322,0,0,1,76.41,11.8,3.322,3.322,0,0,1,79.859,8.57Zm2.463,12.643H77.4V46.766h4.927Z" transform="translate(-76.41 -7.317)" fill="#fff"/>
      <path id="Path_5" data-name="Path 5" d="M98.427,49.166H93.45V23.613h4.977v3.833c1.528-3.065,5.2-4.376,7.992-4.376,6.347,0,9.854,4.159,9.854,11.332V49.174H111.3V34.728c0-4.267-2.138-6.789-5.637-6.789-3.616,0-7.223,2.021-7.223,7.441V49.166Z" transform="translate(-79.22 -9.709)" fill="#fff"/>
      <path id="Path_6" data-name="Path 6" d="M150.2,42.586c-1.7,2.9-5.42,4.484-8.977,4.484-7.006,0-12.919-5.253-12.919-13.353,0-8.159,5.854-13.3,12.86-13.3,3.775,0,7.332,1.478,9.027,4.376V7.07h4.977V46.527h-4.977V42.586Zm-8.535-17.294a8.023,8.023,0,0,0-8.267,8.376,8.377,8.377,0,1,0,16.752,0A8.239,8.239,0,0,0,141.661,25.291Z" transform="translate(-84.968 -7.07)" fill="#fff"/>
      <path id="Path_7" data-name="Path 7" d="M172.719,8.57a3.239,3.239,0,1,1,0,6.463A3.322,3.322,0,0,1,169.27,11.8,3.322,3.322,0,0,1,172.719,8.57Zm2.464,12.643h-4.927V46.766h4.927Z" transform="translate(-91.725 -7.317)" fill="#fff"/>
      <path id="Path_8" data-name="Path 8" d="M187.694,23.71l7.774,19.207,7.716-19.207H208.5L197.824,49.263h-4.76L182.45,23.71h5.244Z" transform="translate(-93.899 -9.814)" fill="#fff"/>
    </g>
    <path id="Path_9" data-name="Path 9" d="M39.907,16.18H22.58L13.92,31.186l8.66,15.006H39.907l8.668-15.006Z" transform="translate(0 -1.502)" fill="#004c3e"/>
  </g>
</svg>
