<svg xmlns="http://www.w3.org/2000/svg" width="21.428" height="21" viewBox="0 0 21.428 21">
  <path id="partnership-for-goals" d="M14.839,9.751a5.616,5.616,0,0,0,1.755-4.843A4.488,4.488,0,0,1,19.127,12.7a5.629,5.629,0,0,0-4.288-2.945m3.816,5.585a4.482,4.482,0,0,1-6.7,3.9A5.609,5.609,0,0,0,13.39,14.3a5.6,5.6,0,0,0,5.174.141,4.464,4.464,0,0,1,.091.9m-15.271.038a4.44,4.44,0,0,1,.1-.932A5.6,5.6,0,0,0,8.641,14.3a5.609,5.609,0,0,0,1.492,4.949,4.45,4.45,0,0,1-2.259.617,4.5,4.5,0,0,1-4.489-4.493m-1.947-6A4.5,4.5,0,0,1,5.445,4.908a5.618,5.618,0,0,0,1.79,4.876,5.635,5.635,0,0,0-4.31,2.923A4.48,4.48,0,0,1,1.437,9.376M11.02,1.133a4.5,4.5,0,0,1,4.115,2.7A5.639,5.639,0,0,0,11.02,7,5.638,5.638,0,0,0,6.9,3.835a4.5,4.5,0,0,1,4.115-2.7m1.069,10.223a4.473,4.473,0,0,1,6.1,2,4.47,4.47,0,0,1-6.1-2m-2.153.03a4.469,4.469,0,0,1-6.071,1.977,4.489,4.489,0,0,1,4.009-2.484,4.443,4.443,0,0,1,2.062.507M6.589,4.936a4.447,4.447,0,0,1,3.768,5.13A4.454,4.454,0,0,1,6.589,4.935m4.452,13.62a4.484,4.484,0,0,1-.042-6.4,4.485,4.485,0,0,1,.042,6.4M15.509,5.627a4.5,4.5,0,0,1-3.827,4.439,4.427,4.427,0,0,1-.059-.69,4.5,4.5,0,0,1,3.828-4.44,4.563,4.563,0,0,1,.058.691m6.225,3.749A5.631,5.631,0,0,0,16.32,3.753a5.619,5.619,0,0,0-10.6,0A5.624,5.624,0,0,0,2.475,13.812a5.618,5.618,0,0,0,8.572,6.2,5.621,5.621,0,0,0,8.527-6.21,5.622,5.622,0,0,0,2.161-4.429" transform="translate(-0.306)" fill="#fff" fill-rule="evenodd"/>
</svg>
