<svg xmlns="http://www.w3.org/2000/svg" width="22.031" height="20.219" viewBox="0 0 22.031 20.219">
  <g id="peace-justice-institution" transform="translate(-0.526)">
    <path id="Path_39" data-name="Path 39" d="M21.62,0A1.652,1.652,0,0,0,21.3,1.166a1.651,1.651,0,0,0,.786.92A1.645,1.645,0,0,0,22.4.919,1.64,1.64,0,0,0,21.62,0M20.7,3.482a1.648,1.648,0,0,0,.315-1.167,1.64,1.64,0,0,0-.785-.918,1.645,1.645,0,0,0-.315,1.166,1.644,1.644,0,0,0,.786.919m1.979-.552a1.458,1.458,0,0,0,1,.427,1.524,1.524,0,0,0,.931-.6,1.46,1.46,0,0,0-1-.427,1.528,1.528,0,0,0-.93.6M23.516.378A1.772,1.772,0,0,0,23.143,1.6a1.685,1.685,0,0,0,1.2-.375A1.771,1.771,0,0,0,24.718,0a1.686,1.686,0,0,0-1.2.374m-1.34,3.906a1.524,1.524,0,0,0,1.033-.4,1.468,1.468,0,0,0-.894-.624,1.529,1.529,0,0,0-1.034.4,1.46,1.46,0,0,0,.9.623m.858,8.754H19.055a.564.564,0,1,0,0,1.128h3.979a.564.564,0,1,0,0-1.128m0,6.053H19.055a.564.564,0,1,0,0,1.128h3.979a.564.564,0,1,0,0-1.128M4.825,11.712a2.366,2.366,0,0,0-.276-.071s.1.031.276.071" transform="translate(-2.164 0)" fill="#fff" fill-rule="evenodd"/>
    <path id="Path_40" data-name="Path 40" d="M9.169,15.56c.262,0,.525,0,.789-.022v2.083L9.169,17.6V15.56Zm11.3.451H16.78a.32.32,0,0,0-.32.32v1.119l-2.407.264-3.516-.08V15.483a9.673,9.673,0,0,0,1.4-.284c3.385-.958,4.123-3.068,4.049-5.008-.074-1.976.557-2.743,1.464-3.083a4.08,4.08,0,0,1,.753-.2,6.026,6.026,0,0,0,.323,1.721c.081,0,.161-.011.24-.019a5.714,5.714,0,0,1-.331-1.735,4.282,4.282,0,0,1,.8-.025,4.984,4.984,0,0,1-.763-.545,3.818,3.818,0,0,1,1.281-2.1,6.988,6.988,0,0,0,.9-1.055l-.2-.13a6.646,6.646,0,0,1-.867,1.018,4.138,4.138,0,0,0-1.314,2.087,7.492,7.492,0,0,1-.58-.585c-.834-.937-1.908-.249-3.44,1.181S10.788,8.2,8.907,6.272A6.855,6.855,0,0,0,2.771,3.883c1.017.434,1.372,1.385,1.886,3.8.539,2.537,1.9,3.685,3.758,3.844-.862.139-1.086.259-2.47,1.219a4.324,4.324,0,0,1-3.224.371c1.133.354,2.476,1.544,3.677,1.96a8.9,8.9,0,0,0,2.192.45v2.06l-6.67-.143v1.437l12.133-.27,2.407.265V20a.322.322,0,0,0,.32.323h3.688a.323.323,0,0,0,.32-.323V16.332a.321.321,0,0,0-.32-.32ZM1.752,19a.515.515,0,0,1-.471.549H1A.516.516,0,0,1,.526,19v-.994A.515.515,0,0,1,1,17.458h.284a.515.515,0,0,1,.471.549V19Z" transform="translate(0 -1.626)" fill="#fff" fill-rule="evenodd"/>
  </g>
</svg>
