<svg xmlns="http://www.w3.org/2000/svg" width="19.855" height="20.624" viewBox="0 0 19.855 20.624">
  <g id="reduced-inequalities" transform="translate(-0.267 0)">
    <path id="Path_31" data-name="Path 31" d="M22.823,26.139H14.446a.091.091,0,0,0-.091.091v1.9a.091.091,0,0,0,.091.092h8.378a.091.091,0,0,0,.091-.092v-1.9a.091.091,0,0,0-.092-.091" transform="translate(-8.127 -15.079)" fill="#fff" fill-rule="evenodd"/>
    <path id="Path_32" data-name="Path 32" d="M19.833,8.553a9.663,9.663,0,0,0-1.8-3.661l-.019.014a9.011,9.011,0,0,1,.716,1.271A8.893,8.893,0,0,1,3.706,15.624,8.393,8.393,0,0,1,15.894,4.188c.017.016.035.032.054.048a.314.314,0,0,0,.19.069.319.319,0,0,0,.209-.081l.034-.033L17.447,3.14l.071-.069a.308.308,0,0,0-.018-.405l-.034-.03A10.309,10.309,0,1,0,4.214,18.416,9.731,9.731,0,0,0,19.833,8.553" transform="translate(0 0)" fill="#fff" fill-rule="evenodd"/>
    <path id="Path_33" data-name="Path 33" d="M22.914,18.187a.091.091,0,0,0-.092-.091H14.445a.091.091,0,0,0-.091.091v1.9a.091.091,0,0,0,.091.091h8.378a.091.091,0,0,0,.091-.091v-1.9Z" transform="translate(-8.127 -10.439)" fill="#fff" fill-rule="evenodd"/>
  </g>
</svg>
