<svg xmlns="http://www.w3.org/2000/svg" width="27.876" height="21" viewBox="0 0 27.876 21">
  <g id="sustainable-cities" transform="translate(-0.02)">
    <path id="Path_34" data-name="Path 34" d="M.173,15.111H6.389a.153.153,0,0,0,.153-.152.148.148,0,0,0-.041-.1l-.008-.008L3.4,10.888l-.03-.033a.151.151,0,0,0-.212-.01l-.019.022-.029.032L.092,14.819l-.047.056a.152.152,0,0,0,.127.236m6.229.684H.172a.151.151,0,0,0-.152.151v4.826a.152.152,0,0,0,.152.152H2.177V17.886a.152.152,0,0,1,.153-.151H4.19a.152.152,0,0,1,.153.151v3.037H6.4a.152.152,0,0,0,.152-.152V15.945a.151.151,0,0,0-.152-.151m20.786.728a.148.148,0,0,1-.151.146H25.2a.149.149,0,0,1-.151-.146V15.413a.148.148,0,0,1,.151-.145h1.841a.148.148,0,0,1,.151.145Zm0,2.048a.148.148,0,0,1-.151.146H25.2a.148.148,0,0,1-.151-.146V17.462a.147.147,0,0,1,.151-.145h1.841a.147.147,0,0,1,.151.145Zm-2.815-2.048a.148.148,0,0,1-.151.146H22.38a.149.149,0,0,1-.152-.146V15.413a.149.149,0,0,1,.152-.145h1.842a.148.148,0,0,1,.151.145Zm0,2.048a.148.148,0,0,1-.151.146H22.38a.149.149,0,0,1-.152-.146V17.462a.148.148,0,0,1,.152-.145h1.842a.147.147,0,0,1,.151.145Zm3.373-4.023H21.581a.147.147,0,0,0-.151.145v6.163a.148.148,0,0,0,.151.145h6.165a.147.147,0,0,0,.15-.145V14.692A.146.146,0,0,0,27.745,14.547ZM12.457,4.38a.079.079,0,0,1-.079.078H11a.079.079,0,0,1-.079-.078V2.856A.079.079,0,0,1,11,2.777h1.381a.079.079,0,0,1,.079.079V4.38Zm0,3.5a.079.079,0,0,1-.079.079H11a.079.079,0,0,1-.079-.079V6.355A.078.078,0,0,1,11,6.278h1.381a.079.079,0,0,1,.079.077V7.879Zm0,3.5a.079.079,0,0,1-.079.079H11a.079.079,0,0,1-.079-.079V9.856A.079.079,0,0,1,11,9.777h1.381a.079.079,0,0,1,.079.079V11.38Zm0,3.5a.079.079,0,0,1-.079.079H11a.078.078,0,0,1-.079-.079V13.356A.078.078,0,0,1,11,13.277h1.381a.079.079,0,0,1,.079.079v1.523Zm0,3.5a.079.079,0,0,1-.079.079H11a.079.079,0,0,1-.079-.079V16.856A.079.079,0,0,1,11,16.778h1.381a.079.079,0,0,1,.079.079V18.38Zm-2.709-14a.079.079,0,0,1-.079.078H8.287a.079.079,0,0,1-.079-.078V2.856a.079.079,0,0,1,.079-.079H9.669a.079.079,0,0,1,.079.079V4.38Zm0,3.5a.079.079,0,0,1-.079.079H8.287a.079.079,0,0,1-.079-.079V6.355a.078.078,0,0,1,.079-.077H9.669a.079.079,0,0,1,.079.077V7.879Zm0,3.5a.079.079,0,0,1-.079.079H8.287a.079.079,0,0,1-.079-.079V9.856a.079.079,0,0,1,.079-.079H9.669a.079.079,0,0,1,.079.079V11.38Zm0,3.5a.079.079,0,0,1-.079.079H8.287a.078.078,0,0,1-.079-.079V13.356a.078.078,0,0,1,.079-.079H9.669a.079.079,0,0,1,.079.079v1.523Zm0,3.5a.079.079,0,0,1-.079.079H8.287a.079.079,0,0,1-.079-.079V16.856a.079.079,0,0,1,.079-.079H9.669a.079.079,0,0,1,.079.079V18.38ZM13.337,0H7.3a.147.147,0,0,0-.148.147V20.559a.148.148,0,0,0,.148.146h6.032a.148.148,0,0,0,.149-.146V.147A.148.148,0,0,0,13.337,0ZM27.883,13.82a.123.123,0,0,1-.124.123H21.554a.123.123,0,0,1-.124-.123V12.591a.124.124,0,0,1,.124-.122h6.205a.123.123,0,0,1,.124.123V13.82Zm-7.967-3.728a.147.147,0,0,1-.147.146h-1.8a.147.147,0,0,1-.148-.146V8.977a.147.147,0,0,1,.148-.146h1.8a.147.147,0,0,1,.147.146Zm0,2.06a.147.147,0,0,1-.147.145h-1.8a.147.147,0,0,1-.148-.145V11.037a.146.146,0,0,1,.148-.146h1.8a.146.146,0,0,1,.147.146Zm0,2.059a.147.147,0,0,1-.147.146h-1.8a.147.147,0,0,1-.148-.146V13.1a.147.147,0,0,1,.148-.146h1.8a.147.147,0,0,1,.147.146Zm0,2.059a.147.147,0,0,1-.147.146h-1.8a.147.147,0,0,1-.148-.146V15.155a.147.147,0,0,1,.148-.146h1.8a.147.147,0,0,1,.147.146Zm0,2.059a.147.147,0,0,1-.147.146h-1.8a.147.147,0,0,1-.148-.146V17.214a.147.147,0,0,1,.148-.146h1.8a.147.147,0,0,1,.147.146ZM17.172,9.7v2.455a.147.147,0,0,1-.147.146h-1.8a.147.147,0,0,1-.149-.146v-.309a.166.166,0,0,1,.012-.055.075.075,0,0,1,.009-.017.1.1,0,0,1,.013-.02c0-.007.011-.016.017-.024.23-.326,1.267-1.59,1.7-2.119l.044-.053a.169.169,0,0,1,.3.074Zm0,4.512a.147.147,0,0,1-.148.146h-1.8a.146.146,0,0,1-.147-.146V13.1a.146.146,0,0,1,.147-.146h1.8a.146.146,0,0,1,.148.146V14.21Zm0,2.059a.146.146,0,0,1-.148.146h-1.8a.146.146,0,0,1-.147-.146V15.155a.146.146,0,0,1,.147-.146h1.8a.146.146,0,0,1,.148.146v1.114Zm0,2.059a.147.147,0,0,1-.148.146h-1.8a.146.146,0,0,1-.147-.146V17.214a.147.147,0,0,1,.147-.146h1.8a.147.147,0,0,1,.148.146v1.114ZM18.105,7.9l.042-.053c.405-.516,1.089-1.349,1.423-1.753l.043-.052a.172.172,0,0,1,.133-.062.168.168,0,0,1,.165.137V8a.169.169,0,0,1-.164.168l-.007,0-.007,0H18.251l-.007,0-.008,0A.169.169,0,0,1,18.072,8a.166.166,0,0,1,.033-.1Zm2.5-4.044a.158.158,0,0,0-.151-.114.162.162,0,0,0-.087.028l-.011.007L20.3,3.84l-5.929,7.446-.027.037a.167.167,0,0,0-.052.116V20.59a.147.147,0,0,0,.148.145h6.027a.146.146,0,0,0,.147-.145V3.916a.139.139,0,0,0-.014-.061Z" fill="#fff" fill-rule="evenodd"/>
  </g>
</svg>
