<svg xmlns="http://www.w3.org/2000/svg" width="159.223" height="40" viewBox="0 0 159.223 40">
  <g id="tabetalt" transform="translate(-53.966 -39.356)">
    <path id="Path_64" data-name="Path 64" d="M84.944,75.694l6.382-3.779a2.374,2.374,0,0,0,.845-3.189L76.309,40.545a2.316,2.316,0,0,0-3.2-.865L55.114,50.335a2.374,2.374,0,0,0-.847,3.19L66.744,75.694H59.238a1.461,1.461,0,0,0-1.461,1.461h0a1.461,1.461,0,0,0,1.461,1.461h8.5a2.3,2.3,0,0,0,2.005-1.155,2.376,2.376,0,0,0,.019-2.357L57.082,52.567l10.186-6.032L76.25,62.526A1.461,1.461,0,1,0,78.8,61.094L69.783,45.045l4.278-2.534L89.355,69.684l-7.689,4.554A2.335,2.335,0,0,0,80.6,76.893a2.309,2.309,0,0,0,2.244,1.724h10a1.461,1.461,0,0,0,1.461-1.461h0a1.461,1.461,0,0,0-1.461-1.461Z" transform="translate(0)" fill="#fff"/>
    <path id="Path_65" data-name="Path 65" d="M405.2,113.037a8.805,8.805,0,0,1,8.383,8.169,8.7,8.7,0,0,1-.526,3.607,8.575,8.575,0,0,1-1.852,2.963,8.393,8.393,0,0,1-6.375,2.769,9.455,9.455,0,0,1-5.343-1.746,6.519,6.519,0,0,1-2.694-5.484V107.8c0-.169.077-.252.254-.379l2.588-1.607a.337.337,0,0,1,.492.295v8.617A6.51,6.51,0,0,1,405.2,113.037ZM405,127.3a5.887,5.887,0,0,0,3.7-1.652,5.258,5.258,0,0,0,1.6-3.86,5.459,5.459,0,0,0-5.478-5.478,4.277,4.277,0,0,0-3.4,1.456,4.79,4.79,0,0,0-1.306,3.669c-.048,1.811.047,3.563,1.654,4.868A5.614,5.614,0,0,0,405,127.3Z" transform="translate(-264.165 -51.188)" fill="#fff"/>
    <path id="Path_66" data-name="Path 66" d="M487.953,137.242a8.012,8.012,0,0,1,5.946,2.573,8.382,8.382,0,0,1,2.456,6.044v1.111a.227.227,0,0,1-.234.253l-12.867,1.111a5.441,5.441,0,0,0,4.932,3.119,7.312,7.312,0,0,0,2.152-.347.285.285,0,0,1,.377.2c.26.969.416,1.5.618,2.323.078.318.154.486-.175.6a9.085,9.085,0,0,1-2.971.519A8.787,8.787,0,0,1,479.433,146a8.584,8.584,0,0,1,2.476-6.239A8.065,8.065,0,0,1,487.953,137.242Zm4.932,6.96a4.649,4.649,0,0,0-1.774-2.671,5.2,5.2,0,0,0-3.217-1.014A4.885,4.885,0,0,0,484.5,141.8a5.25,5.25,0,0,0-1.716,3.275Z" transform="translate(-327.845 -75.426)" fill="#fff"/>
    <path id="Path_67" data-name="Path 67" d="M682.788,131.476a.253.253,0,0,1-.253-.253V109.388a.425.425,0,0,1,.253-.451l2.477-1.483c.4-.208.623.035.623.347v23.422a.253.253,0,0,1-.253.253Z" transform="translate(-484.347 -52.413)" fill="#fff"/>
    <path id="Path_68" data-name="Path 68" d="M573.885,118.366H570.1l-.011-5.21a.3.3,0,0,0-.416-.295l-2.615,1.566a.492.492,0,0,0-.254.454l.02,16.059a5.583,5.583,0,0,0,.663,2.729,4.291,4.291,0,0,0,1.872,1.794,5.793,5.793,0,0,0,4.226.145c.08-.047.171-.078.248-.13.207-.139.185-.47.135-.677-.191-.784-.274-1.114-.533-2.077a.275.275,0,0,0-.345-.192,3.37,3.37,0,0,1-1.371.312,2.735,2.735,0,0,1-.88-.3,1.608,1.608,0,0,1-.741-1.6v-9.3h3.78a.254.254,0,0,0,.254-.254V118.62A.253.253,0,0,0,573.885,118.366Z" transform="translate(-395.174 -56.62)" fill="#fff"/>
    <path id="Path_69" data-name="Path 69" d="M723.046,118.511h-3.78l-.011-5.21a.3.3,0,0,0-.416-.295l-2.615,1.566a.492.492,0,0,0-.253.454l.02,16.059a5.582,5.582,0,0,0,.663,2.729,4.291,4.291,0,0,0,1.872,1.794,5.606,5.606,0,0,0,3.582.331,5.672,5.672,0,0,0,.645-.187c.08-.047.17-.078.248-.13.207-.139.185-.47.135-.677-.194-.8-.276-1.125-.545-2.123a.224.224,0,0,0-.269-.165,3.709,3.709,0,0,1-1.435.331,2.739,2.739,0,0,1-.88-.3,1.608,1.608,0,0,1-.741-1.6v-9.3h3.78a.254.254,0,0,0,.254-.254v-2.768A.254.254,0,0,0,723.046,118.511Z" transform="translate(-510.111 -56.732)" fill="#fff"/>
    <path id="Path_70" data-name="Path 70" d="M291.693,117.6h-3.78l-.011-5.21a.3.3,0,0,0-.416-.295l-2.615,1.566a.491.491,0,0,0-.254.454l.02,16.059a5.581,5.581,0,0,0,.663,2.729,4.29,4.29,0,0,0,1.872,1.794,5.794,5.794,0,0,0,4.227.145c.081-.047.17-.078.248-.13.207-.139.186-.47.135-.677-.195-.8-.277-1.126-.546-2.13a.219.219,0,0,0-.26-.161,3.749,3.749,0,0,1-1.441.333,2.739,2.739,0,0,1-.88-.3,1.608,1.608,0,0,1-.741-1.6v-9.3h3.78a.253.253,0,0,0,.254-.254v-2.768A.253.253,0,0,0,291.693,117.6Z" transform="translate(-177.73 -56.033)" fill="#fff"/>
    <path id="Path_71" data-name="Path 71" d="M624.752,151.437a5.034,5.034,0,0,1-3.59,2.409,10.359,10.359,0,0,1-5.9-.429,4.906,4.906,0,0,1-2.816-5.337,4.838,4.838,0,0,1,.4-1.262c1.438-3.041,4.4-3.273,7.35-3.529.721-.063,1.416-.136,2-.219-.106-1.521-.318-2.077-.769-2.542a3.936,3.936,0,0,0-2.685-.787,5.617,5.617,0,0,0-3.626.98.219.219,0,0,1-.338,0l-2.109-1.93a.229.229,0,0,1,0-.378,2.718,2.718,0,0,1,.3-.259,3.841,3.841,0,0,1,.438-.338c3.145-2.107,8.678-2.115,10.944,1.307a5.608,5.608,0,0,1,.5.93c.663,1.581.453,3.539.483,5.241C625.364,147.295,625.4,150.033,624.752,151.437Zm-2.484-4.862a.224.224,0,0,0-.228-.227,20.8,20.8,0,0,0-4.271.27,3.049,3.049,0,0,0-1.857,1.043c-.94,1.3.1,2.863,1.48,3.2,1.486.361,4.59.271,4.835-1.773A23.553,23.553,0,0,0,622.268,146.575Z" transform="translate(-430.282 -74.752)" fill="#fff"/>
    <path id="Path_72" data-name="Path 72" d="M339.737,151.582a5.034,5.034,0,0,1-3.59,2.409,10.359,10.359,0,0,1-5.9-.429,4.906,4.906,0,0,1-2.816-5.337,4.837,4.837,0,0,1,.4-1.262c1.438-3.041,4.4-3.273,7.35-3.529.721-.063,1.416-.136,2-.219-.106-1.521-.318-2.077-.768-2.542a3.937,3.937,0,0,0-2.685-.787,5.618,5.618,0,0,0-3.626.98.219.219,0,0,1-.338,0l-2.109-1.93a.229.229,0,0,1,0-.378,2.731,2.731,0,0,1,.3-.259,3.823,3.823,0,0,1,.438-.338c3.145-2.107,8.678-2.115,10.944,1.307a5.608,5.608,0,0,1,.5.93c.663,1.581.453,3.539.483,5.241C340.349,147.44,340.387,150.178,339.737,151.582Zm-2.484-4.863a.225.225,0,0,0-.228-.227,20.8,20.8,0,0,0-4.271.27,3.051,3.051,0,0,0-1.857,1.044c-.94,1.3.1,2.863,1.48,3.2,1.486.361,4.59.271,4.835-1.773A23.487,23.487,0,0,0,337.253,146.72Z" transform="translate(-210.663 -74.864)" fill="#fff"/>
  </g>
</svg>
