<svg id="taximum-log" xmlns="http://www.w3.org/2000/svg" width="127.157" height="40" viewBox="0 0 127.157 40">
  <g id="Group_7" data-name="Group 7" transform="translate(9.59 10.35)">
    <path id="Path_41" data-name="Path 41" d="M38.262,24.13v2.888h-6.48V43.253H28.53V27.018H22.08V24.13Z" transform="translate(-22.08 -24)" fill="#fff"/>
    <path id="Path_42" data-name="Path 42" d="M60.486,37.37a4.587,4.587,0,0,1,3.931,1.794l.156-1.533h2.81V50.742h-2.81l-.156-1.533A4.571,4.571,0,0,1,60.486,51a5.3,5.3,0,0,1-4.252-1.924,7.312,7.312,0,0,1-1.624-4.89,7.315,7.315,0,0,1,1.624-4.9A5.307,5.307,0,0,1,60.486,37.37Zm.678,2.758a3.038,3.038,0,0,0-2.458,1.107,4.453,4.453,0,0,0-.925,2.953,4.453,4.453,0,0,0,.925,2.953,3.038,3.038,0,0,0,2.458,1.107,3.592,3.592,0,0,0,3.1-1.95V42.087A3.585,3.585,0,0,0,61.164,40.128Z" transform="translate(-40.482 -31.489)" fill="#fff"/>
    <path id="Path_43" data-name="Path 43" d="M101.167,37.97l-4.187,6.454,4.369,6.662H97.732l-2.888-4.63-2.862,4.63H88.39l4.343-6.662L88.572,37.97h3.54l2.732,4.5,2.758-4.5h3.566Z" transform="translate(-59.591 -31.829)" fill="#fff"/>
    <path id="Path_44" data-name="Path 44" d="M122.487,24.39a1.849,1.849,0,0,1,1.381-.56,1.914,1.914,0,0,1,1.95,1.954,1.833,1.833,0,0,1-.56,1.377,1.913,1.913,0,0,1-1.39.547,1.871,1.871,0,0,1-1.928-1.924A1.916,1.916,0,0,1,122.487,24.39Zm2.966,5.581V43.083H122.3V29.971Z" transform="translate(-78.57 -23.83)" fill="#fff"/>
    <path id="Path_45" data-name="Path 45" d="M153.367,37.37a4.242,4.242,0,0,1,3.488,1.546,6.414,6.414,0,0,1,1.251,4.152v7.674H154.93V43.251a3.235,3.235,0,0,0-.651-2.119,2.2,2.2,0,0,0-1.794-.795,3.6,3.6,0,0,0-2.94,1.846,5.189,5.189,0,0,1,.026.6v7.961h-3.123V43.251a3.192,3.192,0,0,0-.665-2.119,2.233,2.233,0,0,0-1.807-.795,3.536,3.536,0,0,0-2.888,1.794v8.612H137.94V37.631h2.836l.13,1.507a4.684,4.684,0,0,1,3.93-1.768,4.232,4.232,0,0,1,4.009,2.315A5.226,5.226,0,0,1,153.367,37.37Z" transform="translate(-87.621 -31.489)" fill="#fff"/>
    <path id="Path_46" data-name="Path 46" d="M203.287,37.97V51.082h-2.81l-.156-1.507a4.684,4.684,0,0,1-4.009,1.768,4.229,4.229,0,0,1-3.474-1.52A6.4,6.4,0,0,1,191.6,45.67v-7.7h3.149v7.544a3.183,3.183,0,0,0,.638,2.08,2.144,2.144,0,0,0,1.755.782,3.66,3.66,0,0,0,3.018-1.82V37.97Z" transform="translate(-117.976 -31.829)" fill="#fff"/>
    <path id="Path_47" data-name="Path 47" d="M241.841,37.37a4.242,4.242,0,0,1,3.488,1.546,6.414,6.414,0,0,1,1.251,4.152v7.674H243.4V43.251a3.235,3.235,0,0,0-.651-2.119,2.2,2.2,0,0,0-1.794-.795,3.6,3.6,0,0,0-2.94,1.846,5.184,5.184,0,0,1,.026.6v7.961h-3.127V43.251a3.192,3.192,0,0,0-.665-2.119,2.233,2.233,0,0,0-1.807-.795,3.536,3.536,0,0,0-2.888,1.794v8.612H226.41V37.631h2.836l.13,1.507a4.684,4.684,0,0,1,3.931-1.768,4.232,4.232,0,0,1,4.009,2.315A5.238,5.238,0,0,1,241.841,37.37Z" transform="translate(-137.667 -31.489)" fill="#fff"/>
  </g>
  <path id="Path_48" data-name="Path 48" d="M127.157,40H0V0H127.157ZM2.172,37.828H124.986V2.172H2.172Z" fill="#fff"/>
</svg>
