<svg xmlns="http://www.w3.org/2000/svg" width="32.012" height="22.318" viewBox="0 0 32.012 22.318">
  <g id="well-being" transform="translate(12.453 -55.07)">
    <path id="Path_10" data-name="Path 10" d="M58.091,21.543a2.243,2.243,0,0,0-2.18-2.424,3.381,3.381,0,0,0-1.878,1.15c-.43-.438-1.169-1.152-1.826-1.152a2.284,2.284,0,0,0-2.233,2.426,2.441,2.441,0,0,0,.7,1.714L54.036,26.6,57.4,23.261l0,0a2.443,2.443,0,0,0,.7-1.715" transform="translate(-38.532 45.137)" fill="#fff" fill-rule="evenodd"/>
    <path id="Path_11" data-name="Path 11" d="M18.1,22.32h-.034a.551.551,0,0,1-.511-.454L15.844,12l-2.59,4.758a.554.554,0,0,1-1.033-.182l-1.1-7.616L9.111,13.435a.553.553,0,0,1-.5.325H.789a.548.548,0,1,1,0-1.1H8.247l2.645-5.889a.554.554,0,0,1,1.052.145l1.133,7.853,2.553-4.693a.554.554,0,0,1,1.031.167l1.583,9.14,5.769-19A.555.555,0,0,1,25.041.31l3.036,6.238a.547.547,0,0,1-.258.731.556.556,0,0,1-.738-.255l-2.418-4.97L18.626,21.93a.553.553,0,0,1-.528.39" transform="translate(-12.69 55.068)" fill="#fff" fill-rule="evenodd"/>
  </g>
</svg>
